# xmcd CD database file
#
# Track frame offsets:
#	150
#	29727
#	71257
#	104930
#	130302
#	168257
#	199912
#	231172
#	258497
#
# Disc length: 3578 seconds
#
# Revision: 0
# Processed by: cddbd v1.5.1PL0 Copyright (c) Steve Scherf et al.
# Submitted via: CDex 1.51
#
DISCID=860df809
DTITLE=Ian Hendrickson-Smith - Still Smokin
DYEAR=2004
DGENRE=Jazz
TTITLE0=I Wish You Love
TTITLE1=Love For Sale
TTITLE2=Memories Of You
TTITLE3=Jacob's Crib
TTITLE4=Sparrow's Flight
TTITLE5=Ian's Bossa
TTITLE6=I Can't Get Started
TTITLE7=Smile
TTITLE8=San Francisco Beat
EXTD=YEAR: 2004
EXTT0=
EXTT1=
EXTT2=
EXTT3=
EXTT4=
EXTT5=
EXTT6=
EXTT7=
EXTT8=
PLAYORDER=
